<svg xmlns="http://www.w3.org/2000/svg" xmlns:xlink="http://www.w3.org/1999/xlink" width="500" zoomAndPan="magnify" viewBox="0 0 375 374.999991" height="500" preserveAspectRatio="xMidYMid meet" version="1.0"><defs><clipPath id="683949b01e"><path d="M 19.097656 41.757812 L 355.847656 41.757812 L 355.847656 333.507812 L 19.097656 333.507812 Z M 19.097656 41.757812 " clip-rule="nonzero"/></clipPath></defs><rect x="-37.5" width="450" fill="#ffffff" y="-37.499999" height="449.999989" fill-opacity="1"/><rect x="-37.5" width="450" fill="#ffffff" y="-37.499999" height="449.999989" fill-opacity="1"/><g clip-path="url(#683949b01e)"><path fill="#000d20" d="M 22.324219 67.539062 L 22.324219 67.542969 L 175.410156 325.113281 L 175.488281 325.121094 C 178.375 330.109375 183.707031 333.507812 189.886719 333.507812 C 195.429688 333.507812 200.300781 330.777344 203.335938 326.625 L 203.378906 326.625 L 203.480469 326.453125 C 204.042969 325.660156 204.515625 324.8125 204.9375 323.925781 L 352.761719 67.429688 L 352.757812 67.425781 C 354.535156 64.773438 355.574219 61.589844 355.574219 58.160156 C 355.574219 48.941406 348.101562 41.46875 338.886719 41.46875 L 36.121094 41.46875 C 26.90625 41.46875 19.433594 48.941406 19.433594 58.160156 C 19.433594 61.636719 20.503906 64.863281 22.324219 67.539062 Z M 22.324219 67.539062 " fill-opacity="1" fill-rule="nonzero"/></g></svg>