<?xml version="1.0" encoding="UTF-8" standalone="no"?>
<!-- Created with Inkscape (http://www.inkscape.org/) -->

<svg
   width="210mm"
   height="297mm"
   viewBox="0 0 210 297"
   version="1.1"
   id="svg1"
   inkscape:version="1.3.2 (091e20e, 2023-11-25, custom)"
   sodipodi:docname="slot_panel_icons.svg"
   xmlns:inkscape="http://www.inkscape.org/namespaces/inkscape"
   xmlns:sodipodi="http://sodipodi.sourceforge.net/DTD/sodipodi-0.dtd"
   xmlns:xlink="http://www.w3.org/1999/xlink"
   xmlns="http://www.w3.org/2000/svg"
   xmlns:svg="http://www.w3.org/2000/svg">
  <sodipodi:namedview
     id="namedview1"
     pagecolor="#464646"
     bordercolor="#000000"
     borderopacity="0.25"
     inkscape:showpageshadow="2"
     inkscape:pageopacity="0.0"
     inkscape:pagecheckerboard="0"
     inkscape:deskcolor="#d1d1d1"
     inkscape:document-units="mm"
     inkscape:zoom="4"
     inkscape:cx="98.75"
     inkscape:cy="64.375"
     inkscape:window-width="1920"
     inkscape:window-height="1057"
     inkscape:window-x="-8"
     inkscape:window-y="-8"
     inkscape:window-maximized="1"
     inkscape:current-layer="layer1"
     showguides="true"
     showgrid="false">
    <sodipodi:guide
       position="21.464322,282.31563"
       orientation="0,-1"
       id="guide32"
       inkscape:locked="false" />
  </sodipodi:namedview>
  <defs
     id="defs1">
    <inkscape:path-effect
       effect="fillet_chamfer"
       id="path-effect18"
       is_visible="true"
       lpeversion="1"
       nodesatellites_param="F,0,0,1,0,0,0,1 @ F,0,0,1,0,0,0,1 @ F,0,0,1,0,0,0,1 @ F,0,0,1,0,0,0,1 @ F,0,0,1,0,0,0,1 @ F,0,0,1,0,0,0,1 @ F,0,0,1,0,0.15946678,0,1 @ F,0,0,1,0,0.1844513,0,1"
       radius="0"
       unit="px"
       method="auto"
       mode="F"
       chamfer_steps="1"
       flexible="false"
       use_knot_distance="true"
       apply_no_radius="true"
       apply_with_radius="true"
       only_selected="false"
       hide_knots="false" />
    <inkscape:path-effect
       effect="fillet_chamfer"
       id="path-effect36"
       is_visible="true"
       lpeversion="1"
       nodesatellites_param="F,0,0,1,0,0,0,1 @ F,0,0,1,0,0,0,1 @ F,0,0,1,0,0,0,1 @ F,0,0,1,0,0,0,1 @ F,0,0,1,0,0,0,1 @ F,0,0,1,0,0,0,1 @ F,0,0,1,0,0.32215888,0,1 @ F,0,0,1,0,0,0,1 @ F,0,0,1,0,0,0,1 @ F,0,0,1,0,0.18944572,0,1"
       radius="0"
       unit="px"
       method="auto"
       mode="F"
       chamfer_steps="1"
       flexible="false"
       use_knot_distance="true"
       apply_no_radius="true"
       apply_with_radius="true"
       only_selected="false"
       hide_knots="false" />
    <inkscape:path-effect
       effect="fillet_chamfer"
       id="path-effect34"
       is_visible="true"
       lpeversion="1"
       nodesatellites_param="F,0,0,1,0,0,0,1 @ F,0,0,1,0,0,0,1 @ F,0,0,1,0,0,0,1 @ F,0,0,1,0,0,0,1 @ F,0,0,1,0,0,0,1 @ F,0,0,1,0,0,0,1 @ F,0,0,1,0,0.32215888,0,1 @ F,0,0,1,0,0,0,1 @ F,0,0,1,0,0,0,1 @ F,0,0,1,0,0.18944572,0,1"
       radius="0"
       unit="px"
       method="auto"
       mode="F"
       chamfer_steps="1"
       flexible="false"
       use_knot_distance="true"
       apply_no_radius="true"
       apply_with_radius="true"
       only_selected="false"
       hide_knots="false" />
    <inkscape:path-effect
       effect="fillet_chamfer"
       id="path-effect32"
       is_visible="true"
       lpeversion="1"
       nodesatellites_param="F,0,0,1,0,0,0,1 @ F,0,0,1,0,0,0,1 @ F,0,0,1,0,0,0,1 @ F,0,0,1,0,0,0,1 @ F,0,0,1,0,0,0,1 @ F,0,0,1,0,0,0,1 @ F,0,0,1,0,0.32215888,0,1 @ F,0,0,1,0,0,0,1 @ F,0,0,1,0,0,0,1 @ F,0,0,1,0,0.18944572,0,1"
       radius="0"
       unit="px"
       method="auto"
       mode="F"
       chamfer_steps="1"
       flexible="false"
       use_knot_distance="true"
       apply_no_radius="true"
       apply_with_radius="true"
       only_selected="false"
       hide_knots="false" />
    <inkscape:path-effect
       effect="fillet_chamfer"
       id="path-effect30"
       is_visible="true"
       lpeversion="1"
       nodesatellites_param="F,0,0,1,0,0,0,1 @ F,0,0,1,0,0,0,1 @ F,0,0,1,0,0,0,1 @ F,0,0,1,0,0,0,1 @ F,0,0,1,0,0,0,1 @ F,0,0,1,0,0,0,1 @ F,0,0,1,0,0.32215888,0,1 @ F,0,0,1,0,0,0,1 @ F,0,0,1,0,0,0,1 @ F,0,0,1,0,0.18944572,0,1"
       radius="0"
       unit="px"
       method="auto"
       mode="F"
       chamfer_steps="1"
       flexible="false"
       use_knot_distance="true"
       apply_no_radius="true"
       apply_with_radius="true"
       only_selected="false"
       hide_knots="false" />
    <inkscape:path-effect
       effect="fillet_chamfer"
       id="path-effect22"
       is_visible="true"
       lpeversion="1"
       nodesatellites_param="F,0,0,1,0,0,0,1 @ F,0,0,1,0,0,0,1 @ F,0,0,1,0,0,0,1 @ F,0,0,1,0,0,0,1 @ F,0,0,1,0,0,0,1 @ F,0,0,1,0,0,0,1 @ F,0,0,1,0,0.32215888,0,1 @ F,0,0,1,0,0,0,1 @ F,0,0,1,0,0,0,1 @ F,0,0,1,0,0.18944572,0,1"
       radius="0"
       unit="px"
       method="auto"
       mode="F"
       chamfer_steps="1"
       flexible="false"
       use_knot_distance="true"
       apply_no_radius="true"
       apply_with_radius="true"
       only_selected="false"
       hide_knots="false" />
    <inkscape:path-effect
       effect="fillet_chamfer"
       id="path-effect20"
       is_visible="true"
       lpeversion="1"
       nodesatellites_param="F,0,0,1,0,0,0,1 @ F,0,0,1,0,0,0,1 @ F,0,0,1,0,0,0,1 @ F,0,0,1,0,0,0,1 @ F,0,0,1,0,0,0,1 @ F,0,0,1,0,0,0,1 @ F,0,0,1,0,0.32215888,0,1 @ F,0,0,1,0,0,0,1 @ F,0,0,1,0,0,0,1 @ F,0,0,1,0,0.18944572,0,1"
       radius="0"
       unit="px"
       method="auto"
       mode="F"
       chamfer_steps="1"
       flexible="false"
       use_knot_distance="true"
       apply_no_radius="true"
       apply_with_radius="true"
       only_selected="false"
       hide_knots="false" />
    <inkscape:path-effect
       effect="fillet_chamfer"
       id="path-effect19"
       is_visible="true"
       lpeversion="1"
       nodesatellites_param="F,0,0,1,0,0,0,1 @ F,0,0,1,0,0,0,1 @ F,0,0,1,0,0,0,1 @ F,0,0,1,0,0,0,1 @ F,0,0,1,0,0,0,1 @ F,0,0,1,0,0,0,1 @ F,0,0,1,0,0,0,1 @ F,0,0,1,0,0,0,1 @ F,0,0,1,0,0,0,1 @ F,0,0,1,0,0,0,1"
       radius="0"
       unit="px"
       method="auto"
       mode="F"
       chamfer_steps="1"
       flexible="false"
       use_knot_distance="true"
       apply_no_radius="true"
       apply_with_radius="true"
       only_selected="false"
       hide_knots="false" />
    <linearGradient
       id="linearGradient20"
       inkscape:collect="always">
      <stop
         style="stop-color:#6ac2f0;stop-opacity:1;"
         offset="0.338"
         id="stop23" />
      <stop
         style="stop-color:#6a98f0;stop-opacity:1;"
         offset="0.53600001"
         id="stop22" />
      <stop
         style="stop-color:#8d5ff2;stop-opacity:1;"
         offset="1"
         id="stop21" />
    </linearGradient>
    <inkscape:path-effect
       effect="fillet_chamfer"
       id="path-effect12"
       is_visible="true"
       lpeversion="1"
       nodesatellites_param="F,0,0,1,0,0,0,1 @ F,0,0,1,0,1.8595292,0,1 @ F,0,0,1,0,0,0,1 @ F,0,0,1,0,0,0,1"
       radius="0"
       unit="px"
       method="auto"
       mode="F"
       chamfer_steps="1"
       flexible="false"
       use_knot_distance="true"
       apply_no_radius="true"
       apply_with_radius="true"
       only_selected="false"
       hide_knots="false" />
    <inkscape:path-effect
       effect="fillet_chamfer"
       id="path-effect10"
       is_visible="true"
       lpeversion="1"
       nodesatellites_param="F,0,0,1,0,0,0,1 @ F,0,0,1,0,1.91012,0,1 @ F,0,0,1,0,0,0,1 @ F,0,0,1,0,0,0,1"
       radius="0"
       unit="px"
       method="auto"
       mode="F"
       chamfer_steps="1"
       flexible="false"
       use_knot_distance="true"
       apply_no_radius="true"
       apply_with_radius="true"
       only_selected="false"
       hide_knots="false" />
    <inkscape:path-effect
       effect="fillet_chamfer"
       id="path-effect9"
       is_visible="true"
       lpeversion="1"
       nodesatellites_param="F,0,0,1,0,0,0,1 @ F,0,0,1,0,0,0,1 @ F,0,0,1,0,0,0,1 @ F,0,0,1,0,0,0,1"
       radius="0"
       unit="px"
       method="auto"
       mode="F"
       chamfer_steps="1"
       flexible="false"
       use_knot_distance="true"
       apply_no_radius="true"
       apply_with_radius="true"
       only_selected="false"
       hide_knots="false" />
    <inkscape:path-effect
       effect="fillet_chamfer"
       id="path-effect8"
       is_visible="true"
       lpeversion="1"
       nodesatellites_param="F,0,0,1,0,0,0,1 @ F,0,0,1,0,0,0,1 @ F,0,0,1,0,0,0,1 @ F,0,0,1,0,0,0,1"
       radius="0"
       unit="px"
       method="auto"
       mode="F"
       chamfer_steps="1"
       flexible="false"
       use_knot_distance="true"
       apply_no_radius="true"
       apply_with_radius="true"
       only_selected="false"
       hide_knots="false" />
    <linearGradient
       inkscape:collect="always"
       xlink:href="#linearGradient20"
       id="linearGradient22"
       x1="44.625851"
       y1="0.94207233"
       x2="44.625851"
       y2="6.2740998"
       gradientUnits="userSpaceOnUse"
       spreadMethod="repeat" />
  </defs>
  <g
     inkscape:label="Camada 1"
     inkscape:groupmode="layer"
     id="layer1">
    <path
       style="fill:none;stroke:#c1c1c1;stroke-width:0.978416;stroke-linecap:round;stroke-dasharray:none;stroke-opacity:1"
       d="m 2.39519,2.6043649 c 0,0 1.2473411,1.7994589 1.571111,1.7994589 0.3237701,0 1.5711112,-1.7994589 1.5711112,-1.7994589"
       id="path1"
       sodipodi:nodetypes="czc" />
    <path
       style="fill:none;stroke:#c1c1c1;stroke-width:1.02784;stroke-linecap:round;stroke-dasharray:none;stroke-opacity:1"
       d="m 9.7918759,5.1545655 c 0,0 1.8903531,-1.3103469 1.8903531,-1.6504712 0,-0.3401244 -1.8903531,-1.6504712 -1.8903531,-1.6504712"
       id="path2"
       sodipodi:nodetypes="czc" />
    <path
       id="rect1"
       style="fill:#c1c1c1;stroke-width:1.47077;stroke-linecap:round;stroke-linejoin:round;fill-opacity:1"
       d="M 16.243453 0.80253499 C 15.594859 0.80253499 15.322071 1.2355792 15.311727 1.7177246 L 14.319539 1.7177246 C 14.074056 1.7177246 13.876156 1.9161423 13.876156 2.1616252 L 13.876156 2.2494751 C 13.876156 2.4642728 14.0278 2.642317 14.230139 2.6835571 L 19.797241 2.6835571 C 19.999466 2.6423172 20.150708 2.4642728 20.150708 2.2494751 L 20.150708 2.1616252 C 20.150708 1.9161421 19.953325 1.7177246 19.707841 1.7177246 L 18.807638 1.7177246 C 18.796769 1.2107823 18.511477 0.80253499 17.775142 0.80253499 L 16.243453 0.80253499 z M 14.633215 3.0060181 L 14.633215 5.7650228 C 14.633215 6.5112914 15.234153 7.1117106 15.98042 7.1117106 L 18.000968 7.1117106 C 18.747236 7.1117106 19.347656 6.5112914 19.347656 5.7650228 L 19.347656 3.0060181 L 14.633215 3.0060181 z M 15.59078 3.354834 L 15.703951 3.354834 C 15.942492 3.354834 16.134932 3.552218 16.134932 3.797701 L 16.134932 5.8771606 C 16.134932 6.1226439 15.942492 6.3205444 15.703951 6.3205444 L 15.59078 6.3205444 C 15.352239 6.3205444 15.160832 6.1226439 15.160832 5.8771606 L 15.160832 3.797701 C 15.160832 3.552218 15.352239 3.354834 15.59078 3.354834 z M 18.272786 3.354834 L 18.385958 3.354834 C 18.624499 3.354834 18.816939 3.552218 18.816939 3.797701 L 18.816939 5.8771606 C 18.816939 6.1226439 18.624499 6.3205444 18.385958 6.3205444 L 18.272786 6.3205444 C 18.034246 6.3205444 17.842839 6.1226439 17.842839 5.8771606 L 17.842839 3.797701 C 17.842839 3.552218 18.034246 3.354834 18.272786 3.354834 z M 16.957104 3.392041 L 17.070276 3.392041 C 17.308817 3.392041 17.500224 3.5899415 17.500224 3.8354248 L 17.500224 6.0905843 C 17.500224 6.3360676 17.308817 6.5329346 17.070276 6.5329346 L 16.957104 6.5329346 C 16.718565 6.5329346 16.52664 6.3360676 16.52664 6.0905843 L 16.52664 3.8354248 C 16.52664 3.5899415 16.718565 3.3920407 16.957104 3.392041 z " />
    <path
       id="path3"
       style="color:#000000;fill:#c1c1c1;stroke-linecap:round;-inkscape-stroke:none;fill-opacity:1"
       d="M 25.073499 1.7485736 C 24.998771 1.7482758 24.924128 1.7514492 24.84974 1.7578753 C 24.25464 1.8092843 23.677575 2.0759488 23.248288 2.5469744 L 23.181625 2.6193215 C 22.981518 2.8388847 22.825401 3.0733384 22.705168 3.2880145 L 22.649874 2.9769224 A 0.328163 0.328163 0 0 0 22.269019 2.7113055 A 0.328163 0.328163 0 0 0 22.003402 3.0921608 L 22.311911 4.8403745 L 23.939201 4.1742653 A 0.328163 0.328163 0 0 0 24.119035 3.7469012 A 0.328163 0.328163 0 0 0 23.691155 3.5670672 L 23.34854 3.7071104 C 23.447484 3.5229895 23.578902 3.3178048 23.745932 3.1345355 L 23.814661 3.0606382 C 24.409277 2.4082101 25.395898 2.3245123 26.093592 2.8653013 L 26.357658 3.0683896 A 0.38249999 0.38249999 0 0 0 26.894577 3.001727 A 0.38249999 0.38249999 0 0 0 26.826364 2.4648089 L 26.562297 2.2596535 C 26.121555 1.91803 25.596596 1.7506581 25.073499 1.7485736 z M 27.91777 3.4440773 L 26.292546 4.1081195 A 0.328163 0.328163 0 0 0 26.112712 4.5354836 A 0.328163 0.328163 0 0 0 26.540593 4.7153175 L 26.879074 4.5768247 C 26.779922 4.760785 26.649055 4.9657413 26.483232 5.1499163 L 26.327169 5.3240659 C 25.737116 5.9794261 24.763213 6.1020841 24.028085 5.6150042 L 23.850318 5.4976987 A 0.38249999 0.38249999 0 0 0 23.321151 5.6051857 A 0.38249999 0.38249999 0 0 0 23.428638 6.1364194 L 23.604338 6.2537249 C 24.127539 6.6003863 24.740028 6.7287183 25.326714 6.6542173 C 25.913399 6.5797164 26.475144 6.3020912 26.895093 5.8356626 L 27.051673 5.6620298 C 27.2504 5.4413077 27.405954 5.2058734 27.526063 4.9912697 L 27.581873 5.3054624 A 0.328163 0.328163 0 0 0 27.962728 5.5710793 A 0.328163 0.328163 0 0 0 28.228345 5.190224 L 27.91777 3.4440773 z "
       transform="translate(0.19369248,-0.3228208)" />
    <path
       style="fill:#c1c1c1;fill-opacity:1;stroke:none;stroke-width:0.765;stroke-linecap:round;stroke-dasharray:none;stroke-opacity:1"
       d="m 33.64046,1.3229166 c -0.304603,-0.0024 -1.743128,1.7697234 -1.743128,3.1843017 0,1.4145783 1.345123,1.5263593 1.74313,1.5263593 0.398007,0 1.67787,-0.1035805 1.67787,-1.5273928 0,-1.4238123 -1.373269,-3.1808664 -1.677872,-3.1832682 z"
       id="path13"
       sodipodi:nodetypes="zzzzz" />
    <path
       style="fill:#c1c1c1;fill-opacity:1;stroke:#000000;stroke-width:0.265;stroke-linecap:round;stroke-dasharray:none;stroke-opacity:1"
       d="m 40.023533,1.3229166 c -0.304603,-0.0024 -1.743128,1.7697234 -1.743128,3.1843017 0,1.4145783 1.345123,1.5263593 1.74313,1.5263593 0.398007,0 1.67787,-0.1035805 1.67787,-1.5273928 0,-1.4238123 -1.373269,-3.1808664 -1.677872,-3.1832682 z"
       id="path14"
       sodipodi:nodetypes="zzzzz" />
    <path
       style="fill:url(#linearGradient22);fill-opacity:1;stroke:none;stroke-width:0.265;stroke-linecap:round;stroke-dasharray:none;stroke-opacity:1"
       d="m 46.501478,1.3229166 c -0.304603,-0.0024 -1.743128,1.7697234 -1.743128,3.1843017 0,1.4145783 1.345123,1.5263593 1.74313,1.5263593 0.398007,0 1.67787,-0.1035805 1.67787,-1.5273928 0,-1.4238123 -1.373269,-3.1808664 -1.677872,-3.1832682 z"
       id="path15"
       sodipodi:nodetypes="zzzzz" />
    <rect
       style="fill:#8eef97;fill-opacity:0;stroke:#8eef97;stroke-width:0.565;stroke-linecap:round;stroke-opacity:1;stroke-dasharray:none"
       id="rect2"
       width="4.6538305"
       height="4.6538305"
       x="1.5902536"
       y="8.2236748"
       rx="1.0523738"
       ry="1.0523738" />
    <rect
       style="fill:#8eef97;fill-opacity:1;stroke:none;stroke-width:0.665001;stroke-linecap:round;stroke-dasharray:none;stroke-opacity:1"
       id="rect3"
       width="1.2898437"
       height="1.2898437"
       x="2.3316402"
       y="9.0206375"
       rx="0.30823293"
       ry="0.30823293" />
    <rect
       style="fill:#8eef97;fill-opacity:1;stroke:none;stroke-width:0.665001;stroke-linecap:round;stroke-dasharray:none;stroke-opacity:1"
       id="rect4"
       width="1.2898437"
       height="1.2898437"
       x="4.2333331"
       y="9.0206375"
       rx="0.30823293"
       ry="0.30823293" />
    <rect
       style="fill:#8eef97;fill-opacity:1;stroke:none;stroke-width:0.665001;stroke-linecap:round;stroke-dasharray:none;stroke-opacity:1"
       id="rect5"
       width="1.2898437"
       height="1.2898437"
       x="2.3316402"
       y="10.806575"
       rx="0.30823293"
       ry="0.30823293" />
    <rect
       style="fill:#8eef97;fill-opacity:1;stroke:none;stroke-width:0.665001;stroke-linecap:round;stroke-dasharray:none;stroke-opacity:1"
       id="rect6"
       width="1.2898437"
       height="1.2898437"
       x="4.2333331"
       y="10.806575"
       rx="0.30823293"
       ry="0.30823293" />
    <path
       id="rect8"
       style="fill:#c1c1c1;stroke:none;stroke-width:0.564999;stroke-linecap:round"
       d="M -7.8615356 10.257255 C -7.8615356 9.9366134 -8.1196701 9.678479 -8.4403117 9.678479 L -9.8593465 9.678479 L -9.8593465 8.2594442 C -9.8593465 7.9388026 -10.117481 7.6806681 -10.438123 7.6806681 L -10.444324 7.6806681 C -10.764965 7.6806681 -11.0231 7.9388026 -11.0231 8.2594442 L -11.0231 9.678479 L -12.442135 9.678479 C -12.762776 9.678479 -13.020911 9.9366134 -13.020911 10.257255 L -13.020911 10.263456 C -13.020911 10.584098 -12.762776 10.842232 -12.442135 10.842232 L -11.0231 10.842232 L -11.0231 12.261267 C -11.0231 12.581909 -10.764965 12.840043 -10.444324 12.840043 L -10.438123 12.840043 C -10.117481 12.840043 -9.8593465 12.581909 -9.8593465 12.261267 L -9.8593465 10.842232 L -8.4403117 10.842232 C -8.1196701 10.842232 -7.8615356 10.584098 -7.8615356 10.263456 L -7.8615356 10.257255 z "
       transform="rotate(-90)" />
    <path
       id="path4"
       style="color:#000000;fill:#8eef97;stroke-linecap:round;stroke-width:1;stroke-dasharray:none"
       d="M 17.635099 8.7581217 L 17.635099 9.3560181 C 17.805578 9.4586269 17.954232 9.5930387 18.073315 9.7513428 L 18.699634 9.7513428 C 18.475988 9.3060955 18.097314 8.9513089 17.635099 8.7581217 z M 15.877584 8.8309855 C 15.48628 9.0339453 15.167806 9.3574119 14.969629 9.7513428 L 15.525667 9.7513428 C 15.547933 9.7513428 15.569469 9.7537211 15.59078 9.7570272 C 15.674147 9.6451685 15.772046 9.5448993 15.882235 9.4593709 C 15.879432 9.4396997 15.877584 9.4198963 15.877584 9.3994263 L 15.877584 8.8309855 z M 14.92002 11.508858 C 15.111936 11.949943 15.452816 12.311583 15.877584 12.532568 L 15.877584 11.900049 C 15.738573 11.790855 15.618259 11.658979 15.5236 11.508858 L 14.92002 11.508858 z M 18.144112 11.508858 C 18.015616 11.712449 17.841589 11.884146 17.635099 12.008569 L 17.635099 12.606982 C 18.132378 12.398712 18.533366 12.002752 18.74821 11.508858 L 18.144112 11.508858 z " />
    <path
       id="rect7"
       style="fill:#8eef97;stroke-width:0.665001;stroke-linecap:round"
       d="m 16.43128,8.2839756 h 0.673378 c 0.170761,0 0.308233,0.1374719 0.308233,0.3082329 v 0.6733778 c 0,0.1707611 -0.137472,0.308233 -0.308233,0.308233 H 16.43128 c -0.170761,0 -0.308233,-0.1374719 -0.308233,-0.308233 V 8.5922085 c 0,-0.170761 0.137472,-0.3082329 0.308233,-0.3082329 z" />
    <path
       id="rect10"
       style="fill:#8eef97;stroke-width:0.665001;stroke-linecap:round"
       d="m 16.43128,11.686651 h 0.673378 c 0.170761,0 0.308233,0.137472 0.308233,0.308233 v 0.673378 c 0,0.170761 -0.137472,0.308233 -0.308233,0.308233 H 16.43128 c -0.170761,0 -0.308233,-0.137472 -0.308233,-0.308233 v -0.673378 c 0,-0.170761 0.137472,-0.308233 0.308233,-0.308233 z" />
    <rect
       style="fill:#8eef97;fill-opacity:1;stroke:none;stroke-width:0.665001;stroke-linecap:round;stroke-dasharray:none;stroke-opacity:1"
       id="rect11"
       width="1.2898437"
       height="1.2898437"
       x="-11.275157"
       y="14.421709"
       rx="0.30823293"
       ry="0.30823293"
       transform="rotate(-90)" />
    <rect
       style="fill:#8eef97;fill-opacity:1;stroke:none;stroke-width:0.665001;stroke-linecap:round;stroke-dasharray:none;stroke-opacity:1"
       id="rect12"
       width="1.2898437"
       height="1.2898437"
       x="-11.275157"
       y="17.824385"
       rx="0.30823293"
       ry="0.30823293"
       transform="rotate(-90)" />
    <path
       id="rect13"
       style="fill:#8eef97;stroke-width:0.665001;stroke-linecap:round"
       transform="rotate(-90)"
       d="m -10.966924,14.421709 h 0.673378 c 0.170761,0 0.3082327,0.137472 0.3082327,0.308233 v 0.673378 c 0,0.170761 -0.1374717,0.308233 -0.3082327,0.308233 h -0.673378 c -0.170761,0 -0.308233,-0.137472 -0.308233,-0.308233 v -0.673378 c 0,-0.170761 0.137472,-0.308233 0.308233,-0.308233 z" />
    <path
       id="rect14"
       style="fill:#8eef97;stroke-width:0.665001;stroke-linecap:round"
       transform="rotate(-90)"
       d="m -10.966924,17.824385 h 0.673378 c 0.170761,0 0.3082327,0.137472 0.3082327,0.308233 v 0.673377 c 0,0.170761 -0.1374717,0.308233 -0.3082327,0.308233 h -0.673378 c -0.170761,0 -0.308233,-0.137472 -0.308233,-0.308233 v -0.673377 c 0,-0.170761 0.137472,-0.308233 0.308233,-0.308233 z" />
    <circle
       style="fill:#8eef97;fill-opacity:1;stroke-width:1.10398;stroke-linecap:round;stroke-dasharray:none"
       id="path10"
       cx="16.764399"
       cy="10.639959"
       r="0.51635754" />
    <path
       id="rect16"
       style="fill:#c1c1c1;fill-opacity:1;stroke-width:1;stroke-linecap:round;stroke-dasharray:none"
       d="M 24.209375 8.6981771 C 24.132652 8.6981771 24.057789 8.7065101 23.985616 8.7214315 L 24.541138 9.2769531 L 25.729696 9.2769531 L 26.303821 8.702828 C 26.272995 8.7002347 26.241806 8.6981771 26.210286 8.6981771 L 24.209375 8.6981771 z M 27.285673 9.6081991 L 26.722917 10.170955 L 26.722917 11.458732 L 27.278438 12.014254 C 27.29336 11.94208 27.301693 11.867218 27.301693 11.790495 L 27.301693 9.7895833 C 27.301693 9.7276912 27.295478 9.6672254 27.285673 9.6081991 z M 23.120553 9.7435913 C 23.119919 9.7589335 23.117969 9.7740799 23.117969 9.7895833 L 23.117969 11.790495 C 23.117969 11.822014 23.120026 11.853203 23.12262 11.884029 L 23.696745 11.309904 L 23.696745 10.319784 L 23.120553 9.7435913 z M 24.590747 12.303125 L 24.027991 12.865881 C 24.087017 12.875686 24.147483 12.881901 24.209375 12.881901 L 26.210286 12.881901 C 26.22579 12.881901 26.240936 12.879951 26.256278 12.879317 L 25.680086 12.303125 L 24.590747 12.303125 z " />
    <path
       id="rect17"
       style="fill:#ef9393;fill-opacity:1;stroke-width:1;stroke-linecap:round;stroke-dasharray:none"
       d="M 10.441886 22.520799 C 10.361184 22.440097 10.24985 22.389983 10.126174 22.389983 C 9.8788221 22.389983 9.6796462 22.589159 9.6796462 22.836511 L 9.6796462 24.974145 L 7.542012 24.974145 C 7.2946599 24.974145 7.0954839 25.173321 7.0954839 25.420673 C 7.0954839 25.668025 7.2946599 25.867201 7.542012 25.867201 L 9.6796462 25.867201 L 9.6796462 28.004835 C 9.6796462 28.252187 9.8788221 28.451363 10.126174 28.451363 C 10.373526 28.451363 10.572702 28.252187 10.572702 28.004835 L 10.572702 25.867201 L 12.710336 25.867201 C 12.957689 25.867201 13.156864 25.668025 13.156864 25.420673 C 13.156864 25.173321 12.957689 24.974145 12.710336 24.974145 L 10.572702 24.974145 L 10.572702 22.836511 C 10.572702 22.712835 10.522588 22.601501 10.441886 22.520799 z "
       transform="rotate(-45)" />
    <path
       id="path21"
       style="fill:#c1c1c1;fill-opacity:1;stroke-width:1;stroke-linecap:round;stroke-dasharray:none"
       d="M 33.602083 8.913151 A 0.52916664 0.52916664 0 0 0 33.072917 9.4423177 A 0.52916664 0.52916664 0 0 0 33.602083 9.9714844 A 0.52916664 0.52916664 0 0 0 34.13125 9.4423177 A 0.52916664 0.52916664 0 0 0 33.602083 8.913151 z M 33.602083 10.368359 A 0.52916664 0.52916664 0 0 0 33.072917 10.897526 A 0.52916664 0.52916664 0 0 0 33.602083 11.426693 A 0.52916664 0.52916664 0 0 0 34.13125 10.897526 A 0.52916664 0.52916664 0 0 0 33.602083 10.368359 z M 33.602083 11.821501 A 0.52916664 0.52916664 0 0 0 33.072917 12.350667 A 0.52916664 0.52916664 0 0 0 33.602083 12.879834 A 0.52916664 0.52916664 0 0 0 34.13125 12.350667 A 0.52916664 0.52916664 0 0 0 33.602083 11.821501 z " />
    <path
       id="rect22"
       style="fill:#c1c1c1;fill-opacity:1;stroke-width:0.797724;stroke-linecap:round;stroke-dasharray:none"
       d="M 39.385193 8.6516683 C 39.139031 8.6516683 38.940776 8.8499241 38.940776 9.0960856 C 38.940776 9.3422471 39.139031 9.5405029 39.385193 9.5405029 L 39.803255 9.5405029 L 39.803255 12.195638 L 39.385193 12.195638 C 39.139031 12.195638 38.940776 12.393894 38.940776 12.640055 C 38.940776 12.886217 39.139031 13.084473 39.385193 13.084473 L 39.947949 13.084473 C 40.01925 13.084473 40.086271 13.068083 40.14587 13.038481 C 40.205469 13.068083 40.27249 13.084473 40.343791 13.084473 L 40.906547 13.084473 C 41.152709 13.084473 41.350964 12.886217 41.350964 12.640055 C 41.350964 12.393894 41.152709 12.195638 40.906547 12.195638 L 40.457996 12.195638 L 40.457996 9.5405029 L 40.906547 9.5405029 C 41.152709 9.5405029 41.350964 9.3422471 41.350964 9.0960856 C 41.350964 8.8499241 41.152709 8.6516683 40.906547 8.6516683 L 40.343791 8.6516683 C 40.272468 8.6516683 40.205483 8.6685569 40.14587 8.6981771 C 40.086257 8.6685571 40.019272 8.6516683 39.947949 8.6516683 L 39.385193 8.6516683 z " />
    <path
       style="fill:none;fill-opacity:1;stroke:#8eef97;stroke-width:1.02784;stroke-linecap:round;stroke-dasharray:none;stroke-opacity:1"
       d="m 45.709065,12.496753 c 0,0 1.890353,-1.310346 1.890353,-1.650471 0,-0.340124 -1.890353,-1.650471 -1.890353,-1.650471"
       id="path26"
       sodipodi:nodetypes="czc" />
    <path
       id="rect27"
       style="fill:#c1c1c1;fill-opacity:1;stroke:none;stroke-width:1;stroke-linecap:round;stroke-dasharray:none;stroke-opacity:1"
       d="M 2.4344767 14.750521 C 2.1666919 14.750521 1.9513021 14.96591 1.9513021 15.233695 L 1.9513021 18.831409 C 1.9513021 19.099194 2.1666919 19.314583 2.4344767 19.314583 L 2.4892537 19.314583 C 2.4751968 19.265523 2.4675496 19.213765 2.4675496 19.160071 L 2.4675496 17.256828 C 2.4675496 16.948398 2.715674 16.699756 3.0241048 16.699756 L 5.1562744 16.699756 C 5.4647052 16.699756 5.7133464 16.948398 5.7133464 17.256828 L 5.7133464 19.160071 C 5.7133464 19.213761 5.7056962 19.265526 5.6916423 19.314583 L 5.7345337 19.314583 C 6.0023184 19.314583 6.2177083 19.099194 6.2177083 18.831409 L 6.2177083 16.573665 L 5.0317342 15.387691 L 5.0317342 16.004191 C 5.0317342 16.203086 4.8714774 16.363342 4.672583 16.363342 L 3.2974731 16.363342 C 3.0985787 16.363342 2.9388387 16.203086 2.9388387 16.004191 L 2.9388387 14.776876 C 2.9388387 14.768076 2.9392588 14.759161 2.9398722 14.750521 L 2.4344767 14.750521 z M 3.6602417 14.790312 C 3.4826126 14.790312 3.3398478 14.933593 3.3398478 15.111222 L 3.3398478 15.669845 C 3.3398478 15.847474 3.4826126 15.990238 3.6602417 15.990238 L 4.3098145 15.990238 C 4.4874436 15.990238 4.6307251 15.847474 4.6307251 15.669845 L 4.6307251 15.111222 C 4.6307251 14.933593 4.4874436 14.790312 4.3098145 14.790312 L 3.6602417 14.790312 z " />
    <rect
       style="fill:#f88a8a;fill-opacity:1;stroke:none;stroke-width:0.861333;stroke-linecap:round;stroke-dasharray:none;stroke-opacity:1"
       id="rect30"
       width="2.4272463"
       height="2.2560277"
       x="2.8767631"
       y="17.080402"
       rx="0.41633871"
       ry="0.41633871" />
    <path
       id="path31"
       style="fill:#c1c1c1;fill-opacity:1;stroke:none;stroke-width:1;stroke-linecap:round;stroke-dasharray:none;stroke-opacity:1"
       d="M 8.8423543 14.750521 C 8.5745695 14.750521 8.3591797 14.96591 8.3591797 15.233695 L 8.3591797 18.831409 C 8.3591797 19.099194 8.5745695 19.314583 8.8423543 19.314583 L 8.8971313 19.314583 C 8.8830744 19.265523 8.8754272 19.213765 8.8754272 19.160071 L 8.8754272 17.256828 C 8.8754272 16.948398 9.1235516 16.699756 9.4319824 16.699756 L 11.564152 16.699756 C 11.872583 16.699756 12.121224 16.948398 12.121224 17.256828 L 12.121224 19.160071 C 12.121224 19.213761 12.11362 19.265526 12.09952 19.314583 L 12.142411 19.314583 C 12.410196 19.314583 12.625586 19.099194 12.625586 18.831409 L 12.625586 16.573665 L 11.439612 15.387691 L 11.439612 16.004191 C 11.439612 16.203086 11.279355 16.363342 11.080461 16.363342 L 9.7053507 16.363342 C 9.5064563 16.363342 9.3467163 16.203086 9.3467163 16.004191 L 9.3467163 14.776876 C 9.3467163 14.768076 9.3471364 14.759161 9.3477498 14.750521 L 8.8423543 14.750521 z M 10.068119 14.790312 C 9.8904902 14.790312 9.7477254 14.933593 9.7477254 15.111222 L 9.7477254 15.669845 C 9.7477254 15.847474 9.8904902 15.990238 10.068119 15.990238 L 10.717692 15.990238 C 10.895321 15.990238 11.038603 15.847474 11.038603 15.669845 L 11.038603 15.111222 C 11.038603 14.933593 10.895321 14.790312 10.717692 14.790312 L 10.068119 14.790312 z " />
    <rect
       style="fill:#8af8a6;fill-opacity:1;stroke:none;stroke-width:0.861333;stroke-linecap:round;stroke-dasharray:none;stroke-opacity:1"
       id="rect32"
       width="2.4272463"
       height="2.2560277"
       x="9.2845507"
       y="17.080402"
       rx="0.41633871"
       ry="0.41633871" />
    <rect
       style="fill:#c1c1c1;fill-opacity:1;stroke:none;stroke-width:2.19136;stroke-linecap:round;stroke-dasharray:none;stroke-opacity:1"
       id="rect34"
       width="1.2628484"
       height="6.5247169"
       x="3.320827"
       y="21.374882"
       rx="0.63142419"
       ry="0.63142425" />
    <rect
       style="fill:#c1c1c1;fill-opacity:1;stroke:none;stroke-width:2.19136;stroke-linecap:round;stroke-dasharray:none;stroke-opacity:1"
       id="rect37"
       width="1.2628484"
       height="6.5247169"
       x="24.073887"
       y="-14.45812"
       rx="0.63142419"
       ry="0.63142425"
       transform="rotate(90)" />
    <path
       id="rect15"
       style="fill:#c1c1c1;stroke-width:1;stroke-linecap:round"
       d="m 15.298291,15.668811 c -0.339043,0 -0.611849,0.272806 -0.611849,0.611849 v 2.471167 c 0,0.339043 0.272806,0.611849 0.611849,0.611849 h 3.009119 c 0.339043,0 0.611849,-0.272806 0.611849,-0.611849 V 17.309236 A 0.32215888,0.32215888 45 0 0 18.5971,16.987077 h -1.444163 c -0.141291,0 -0.214354,-0.119892 -0.254765,-0.255282 l -0.26309,-0.881452 a 0.25424886,0.25424886 36.690504 0 0 -0.243629,-0.181532 z"
       sodipodi:nodetypes="sssssscsscs"
       inkscape:path-effect="#path-effect20"
       inkscape:original-d="m 15.298291,15.668811 c -0.339043,0 -0.611849,0.272806 -0.611849,0.611849 v 2.471167 c 0,0.339043 0.272806,0.611849 0.611849,0.611849 h 3.009119 c 0.339043,0 0.611849,-0.272806 0.611849,-0.611849 v -1.76475 h -1.766322 c -0.141291,0 -0.214354,-0.119892 -0.254765,-0.255282 l -0.317273,-1.062984 z" />
    <path
       id="path32"
       style="fill:#c1c1c1;stroke-width:1;stroke-linecap:round"
       d="m 15.298291,15.727276 c -0.339043,0 -0.611849,0.272806 -0.611849,0.611849 v 2.412702 c 0,0.339043 0.272806,0.611849 0.611849,0.611849 h 3.009119 c 0.339043,0 0.611849,-0.272806 0.611849,-0.611849 v -1.442591 a 0.31167102,0.31167102 44.052024 0 0 -0.321983,-0.311501 l -1.444339,0.04781 c -0.141214,0.0047 -0.214355,-0.119892 -0.254765,-0.255282 l -0.26309,-0.881452 A 0.2542499,0.2542499 36.690616 0 0 16.391453,15.72728 Z"
       sodipodi:nodetypes="sssssscsscs"
       inkscape:path-effect="#path-effect34"
       inkscape:original-d="m 15.298291,15.727276 c -0.339043,0 -0.611849,0.272806 -0.611849,0.611849 v 2.412702 c 0,0.339043 0.272806,0.611849 0.611849,0.611849 h 3.009119 c 0.339043,0 0.611849,-0.272806 0.611849,-0.611849 v -1.76475 l -1.766322,0.05847 c -0.141214,0.0047 -0.214355,-0.119892 -0.254765,-0.255282 l -0.317273,-1.062984 z"
       transform="translate(8.2847656)" />
    <path
       id="rect35"
       style="fill:#8af8a6;fill-opacity:1;stroke:none;stroke-width:0.861333;stroke-linecap:round;stroke-dasharray:none;stroke-opacity:1"
       d="m 24.410913,15.163932 c -0.205032,0 -0.374669,0.146972 -0.409794,0.341582 h 0.744141 c 0.122274,5e-6 0.230051,0.08026 0.2651,0.197403 l 0.286287,0.772543 c 0.04398,0.147358 0.123205,0.277502 0.276986,0.277502 h 0.84801 v -1.172518 c 0,-0.230651 -0.185861,-0.416512 -0.416512,-0.416512 z"
       sodipodi:nodetypes="sccccscsss" />
    <path
       id="rect9"
       style="fill:#c1c1c1;stroke-width:0.917305;stroke-linecap:round"
       d="m 32.794373,15.079337 c -0.290712,0 -0.524751,0.234039 -0.524751,0.524752 v 3.132393 c 0,0.290711 0.234039,0.524752 0.524751,0.524752 h 2.063455 c 0.290712,0 0.524752,-0.234041 0.524752,-0.524752 v -2.629921 a 0.35315037,0.35315037 0 0 0 -0.103339,-0.249815 l -0.657954,-0.657954 a 0.40848035,0.40848035 0 0 0 -0.288685,-0.119455 z m 0.544661,0.568836 h 0.999257 c 0.281721,0 0.508635,0.233198 0.508635,0.522856 v 2.085734 c 0,0.289658 -0.226914,0.522856 -0.508635,0.522856 h -0.999257 c -0.281721,0 -0.508635,-0.233198 -0.508635,-0.522856 v -2.085734 c 0,-0.289658 0.226914,-0.522856 0.508635,-0.522856 z" />
    <rect
       style="fill:#c1c1c1;fill-opacity:1;stroke-width:0.917305;stroke-linecap:round"
       id="rect18"
       width="1.5338286"
       height="0.35396135"
       x="33.087715"
       y="16.047676"
       rx="0.17698041"
       ry="0.17698041" />
    <rect
       style="fill:#c1c1c1;fill-opacity:1;stroke-width:0.917305;stroke-linecap:round"
       id="rect19"
       width="1.5338286"
       height="0.35396135"
       x="33.087715"
       y="16.71269"
       rx="0.17698041"
       ry="0.17698041" />
    <rect
       style="fill:#c1c1c1;fill-opacity:1;stroke-width:0.917305;stroke-linecap:round"
       id="rect20"
       width="1.5338286"
       height="0.35396135"
       x="33.087715"
       y="17.425976"
       rx="0.17698041"
       ry="0.17698041" />
    <rect
       style="fill:#c1c1c1;fill-opacity:1;stroke-width:0.917305;stroke-linecap:round"
       id="rect21"
       width="1.5338286"
       height="0.35396135"
       x="33.087715"
       y="18.08563"
       rx="0.17698041"
       ry="0.17698041" />
    <path
       id="path22"
       style="fill:#c1c1c1;stroke:none;stroke-width:0.564999;stroke-linecap:round"
       d="m 38.133527,15.696904 c -0.226728,0.226728 -0.226727,0.591785 0,0.818513 l 1.00341,1.003409 -1.00341,1.003409 c -0.226728,0.226729 -0.226727,0.591786 10e-7,0.818514 l 0.0044,0.0044 c 0.226728,0.226727 0.591785,0.226728 0.818513,0 l 1.003409,-1.003409 1.00341,1.003409 c 0.226727,0.226727 0.591784,0.226728 0.818512,0 l 0.0044,-0.0044 c 0.226728,-0.226728 0.226727,-0.591785 0,-0.818513 l -1.003409,-1.003408 1.003409,-1.00341 c 0.226728,-0.226728 0.226728,-0.591785 0,-0.818513 l -0.0044,-0.0044 c -0.226728,-0.226728 -0.591785,-0.226728 -0.818513,0 l -1.003409,1.003408 -1.00341,-1.00341 c -0.226727,-0.226727 -0.591785,-0.226728 -0.818513,0 z" />
  </g>
</svg>
